<svg xmlns="http://www.w3.org/2000/svg" width="25" height="23" viewBox="0 0 25 23">
    <path fill="#F00" fill-rule="evenodd" stroke="#F00" stroke-width=".8" d="M17.863 18.132c.928 0 1.674.739 1.674 1.657 0 .92-.746 1.658-1.674 1.658-.928 0-1.675-.739-1.675-1.658 0-.918.747-1.657 1.675-1.657zm-8.374 0c.929 0 1.675.739 1.675 1.657 0 .92-.746 1.658-1.675 1.658-.928 0-1.674-.739-1.674-1.658 0-.918.746-1.657 1.674-1.657zm8.374-.553c-1.23 0-2.233.993-2.233 2.21 0 1.218 1.003 2.211 2.233 2.211 1.23 0 2.232-.993 2.232-2.21 0-1.218-1.002-2.211-2.232-2.211zm-8.374 0c-1.23 0-2.232.993-2.232 2.21C7.257 21.007 8.26 22 9.489 22c1.23 0 2.233-.993 2.233-2.21 0-1.218-1.003-2.211-2.233-2.211zm7.536-9.118h5.373l-.846 3.592h-4.527V8.46zm-5.582 3.592h5.024V8.46h-5.024v3.592zm-6-3.592h5.442v3.592H6.21L5.443 8.46zm11.582-4.145h6.35l-.846 3.592h-5.504V4.316zm-5.582 3.592h5.024V4.316h-5.024v3.592zM4.562 4.316h6.323v3.592H5.329l-.767-3.592zM.279 1A.278.278 0 0 0 0 1.276c0 .153.125.277.28.277h3.122l3 14.014c-.051.174.115.372.296.354h13.956a.289.289 0 0 0 .283-.276.289.289 0 0 0-.283-.277H6.925l-.593-2.763H21.77a.286.286 0 0 0 .27-.216L23.994 4.1c.037-.16-.104-.336-.27-.337H4.44l-.541-2.547A.287.287 0 0 0 3.629 1H.278z" opacity=".6"/>
</svg>
