<svg xmlns="http://www.w3.org/2000/svg" width="19" height="16" viewBox="0 0 19 16">
    <path fill="#000" fill-rule="evenodd" d="M5.32 1.24c1.533 0 2.925.853 3.63 2.226a.636.636 0 0 0 .214.24c.016.01.03.02.052.032l.001-.002.024.012a.582.582 0 0 0 .217.057.599.599 0 0 0 .593-.344A4.077 4.077 0 0 1 13.68 1.24c2.255 0 4.09 1.851 4.09 4.126a4.125 4.125 0 0 1-1.143 2.86L9.5 14.552 2.376 8.23A4.128 4.128 0 0 1 1.23 5.367c0-2.276 1.834-4.127 4.09-4.127M13.68 0A5.31 5.31 0 0 0 9.5 2.045 5.307 5.307 0 0 0 5.32 0C2.385 0 0 2.407 0 5.367c0 1.406.535 2.736 1.507 3.742l.026.024 7.56 6.712a.612.612 0 0 0 .813 0l7.552-6.704.012-.01.022-.021A5.36 5.36 0 0 0 19 5.368C19 2.407 16.612 0 13.68 0"/>
</svg>
